<?xml version="1.0" encoding="utf-8"?>
<!-- Generator: Adobe Illustrator 27.2.0, SVG Export Plug-In . SVG Version: 6.00 Build 0)  -->
<svg version="1.1" id="Capa_1" xmlns="http://www.w3.org/2000/svg" xmlns:xlink="http://www.w3.org/1999/xlink" x="0px" y="0px"
	 viewBox="0 0 299 241.9" style="enable-background:new 0 0 299 241.9;" xml:space="preserve">
<style type="text/css">
	.st0{fill:#FFFFFF;}
	.st1{clip-path:url(#SVGID_00000059994577894653185120000018392783727537408432_);}
	.st2{clip-path:url(#SVGID_00000044890218685581961420000015713327155136336519_);}
	.st3{fill:url(#Rectángulo_50_00000183210087595500518970000005782050891815506847_);}
	.st4{fill:url(#Rectángulo_50_00000064327619747176626960000001605870486708659364_);}
	.st5{fill:url(#Rectángulo_50_00000093867047990672101950000012590611403586588333_);}
	.st6{fill:none;stroke:#FFFFFF;stroke-miterlimit:10;}
	.st7{opacity:0.9677;fill:none;stroke:#FFFFFF;stroke-miterlimit:10;}
	.st8{opacity:0.9355;fill:none;stroke:#FFFFFF;stroke-miterlimit:10;}
	.st9{opacity:0.9032;fill:none;stroke:#FFFFFF;stroke-miterlimit:10;}
	.st10{opacity:0.871;fill:none;stroke:#FFFFFF;stroke-miterlimit:10;}
	.st11{opacity:0.8387;fill:none;stroke:#FFFFFF;stroke-miterlimit:10;}
	.st12{opacity:0.8065;fill:none;stroke:#FFFFFF;stroke-miterlimit:10;}
	.st13{opacity:0.7742;fill:none;stroke:#FFFFFF;stroke-miterlimit:10;}
	.st14{opacity:0.7419;fill:none;stroke:#FFFFFF;stroke-miterlimit:10;}
	.st15{opacity:0.7097;fill:none;stroke:#FFFFFF;stroke-miterlimit:10;}
	.st16{opacity:0.6774;fill:none;stroke:#FFFFFF;stroke-miterlimit:10;}
	.st17{opacity:0.6452;fill:none;stroke:#FFFFFF;stroke-miterlimit:10;}
	.st18{opacity:0.6129;fill:none;stroke:#FFFFFF;stroke-miterlimit:10;}
	.st19{opacity:0.5806;fill:none;stroke:#FFFFFF;stroke-miterlimit:10;}
	.st20{opacity:0.5484;fill:none;stroke:#FFFFFF;stroke-miterlimit:10;}
	.st21{opacity:0.5161;fill:none;stroke:#FFFFFF;stroke-miterlimit:10;}
	.st22{opacity:0.4839;fill:none;stroke:#FFFFFF;stroke-miterlimit:10;}
	.st23{opacity:0.4516;fill:none;stroke:#FFFFFF;stroke-miterlimit:10;}
	.st24{opacity:0.4194;fill:none;stroke:#FFFFFF;stroke-miterlimit:10;}
	.st25{opacity:0.3871;fill:none;stroke:#FFFFFF;stroke-miterlimit:10;}
	.st26{opacity:0.3548;fill:none;stroke:#FFFFFF;stroke-miterlimit:10;}
	.st27{opacity:0.3226;fill:none;stroke:#FFFFFF;stroke-miterlimit:10;}
	.st28{opacity:0.2903;fill:none;stroke:#FFFFFF;stroke-miterlimit:10;}
	.st29{opacity:0.2581;fill:none;stroke:#FFFFFF;stroke-miterlimit:10;}
	.st30{opacity:0.2258;fill:none;stroke:#FFFFFF;stroke-miterlimit:10;}
	.st31{opacity:0.1935;fill:none;stroke:#FFFFFF;stroke-miterlimit:10;}
	.st32{opacity:0.1613;fill:none;stroke:#FFFFFF;stroke-miterlimit:10;}
	.st33{opacity:0.129;fill:none;stroke:#FFFFFF;stroke-miterlimit:10;}
	.st34{opacity:9.677419e-02;fill:none;stroke:#FFFFFF;stroke-miterlimit:10;}
	.st35{opacity:6.451613e-02;fill:none;stroke:#FFFFFF;stroke-miterlimit:10;}
	.st36{opacity:3.225806e-02;fill:none;stroke:#FFFFFF;stroke-miterlimit:10;}
	.st37{opacity:0;fill:none;stroke:#FFFFFF;stroke-miterlimit:10;}
</style>
<path class="st0" d="M259.5,89.8c-8.6-15-24.7-24.4-42-24.4c0,0,0,0,0,0l-44.3,0c-16.1,0-31.1,8.1-40.1,21.3l-0.1-69.1h-8.2L125,87
	c-6.4-9.7-16-16.6-27.3-19.8c-12.4-3.5-25.5-1.9-36.8,4.4C49.8,78,41.7,88.4,38.2,100.8s-1.9,25.5,4.4,36.8
	c13.1,23.2,42.7,31.5,65.9,18.4c9.1-5.1,16.3-13.1,20.5-22.7c7.1,16.1,22.6,27.2,40.2,28.7l0.1,55.5h8.2l-0.1-76.7
	c14,20.8,42,27.6,64.1,15c11.2-6.4,19.3-16.8,22.7-29.2S265.9,101,259.5,89.8z M124.9,113.8c0,10.7-4.2,20.8-11.7,28.4
	s-17.7,11.8-28.4,11.8h0c-22.2,0-40.2-18-40.2-40.2c0-22.2,18-40.2,40.2-40.2S124.9,91.6,124.9,113.8z M169.2,153.8
	c-19.9-2-35.5-18.8-36.1-38.7h0.1l0-4.3c1.7-20.7,19.2-37,40-37h17.4c-13.3,8.9-21.4,24-21.4,40.2L169.2,153.8z M188.6,85.6
	c7.5-7.6,17.6-11.9,28.3-12l0.7,0c0.1,0,0.2,0,0.3,0c22,0,40,17.8,40.2,39.9c0.1,10.7-4,20.8-11.5,28.5c-7.5,7.6-17.6,11.9-28.3,12
	c-0.2,0-0.4,0-0.6,0h0h0c-10.8,0.1-20.8-4-28.5-11.5c-7.6-7.5-11.9-17.6-12-28.3S181.1,93.3,188.6,85.6z"/>
</svg>
